<?xml version="1.0" encoding="us-ascii" standalone="no"?><svg xmlns="http://www.w3.org/2000/svg" xmlns:xlink="http://www.w3.org/1999/xlink" contentStyleType="text/css" height="1086px" preserveAspectRatio="none" style="width:1253px;height:1086px;background:#FFFFFF;" version="1.1" viewBox="0 0 1253 1086" width="1253px" zoomAndPan="magnify"><defs/><g><rect fill="#FFFFFF" height="805.4116" style="stroke:#181818;stroke-width:1.0;" width="10" x="391.5" y="189.8564"/><rect fill="#FFFFFF" height="775.4854" style="stroke:#181818;stroke-width:1.0;" width="10" x="581.5" y="219.7827"/><rect fill="#FFFFFF" height="89.7788" style="stroke:#181818;stroke-width:1.0;" width="10" x="808.5" y="265.6353"/><rect fill="#FFFFFF" height="89.7788" style="stroke:#181818;stroke-width:1.0;" width="10" x="953" y="531.4478"/><rect fill="#FFFFFF" height="89.7788" style="stroke:#181818;stroke-width:1.0;" width="10" x="953" y="725.9316"/><rect fill="none" height="617.854" style="stroke:#000000;stroke-width:1.5;" width="1236" x="10" y="370.4141"/><line style="stroke:#181818;stroke-width:0.5;stroke-dasharray:5.0,5.0;" x1="37" x2="37" y1="82.1514" y2="1005.2681"/><line style="stroke:#181818;stroke-width:0.5;stroke-dasharray:5.0,5.0;" x1="219.5" x2="219.5" y1="82.1514" y2="1005.2681"/><line style="stroke:#181818;stroke-width:0.5;stroke-dasharray:5.0,5.0;" x1="396.5" x2="396.5" y1="82.1514" y2="1005.2681"/><line style="stroke:#181818;stroke-width:0.5;stroke-dasharray:5.0,5.0;" x1="586" x2="586" y1="82.1514" y2="1005.2681"/><line style="stroke:#181818;stroke-width:0.5;stroke-dasharray:5.0,5.0;" x1="813" x2="813" y1="82.1514" y2="1005.2681"/><line style="stroke:#181818;stroke-width:0.5;stroke-dasharray:5.0,5.0;" x1="958" x2="958" y1="82.1514" y2="1005.2681"/><line style="stroke:#181818;stroke-width:0.5;stroke-dasharray:5.0,5.0;" x1="1218" x2="1218" y1="82.1514" y2="1005.2681"/><text fill="#000000" font-family="sans-serif" font-size="14" lengthAdjust="spacing" textLength="29" x="20" y="79.0752">User</text><ellipse cx="37.5" cy="13.5" fill="#E2E2F0" rx="8" ry="8" style="stroke:#181818;stroke-width:0.5;"/><path d="M37.5,21.5 L37.5,48.5 M24.5,29.5 L50.5,29.5 M37.5,48.5 L24.5,63.5 M37.5,48.5 L50.5,63.5 " fill="none" style="stroke:#181818;stroke-width:0.5;"/><text fill="#000000" font-family="sans-serif" font-size="14" lengthAdjust="spacing" textLength="29" x="20" y="1018.3433">User</text><ellipse cx="37.5" cy="1029.9194" fill="#E2E2F0" rx="8" ry="8" style="stroke:#181818;stroke-width:0.5;"/><path d="M37.5,1037.9194 L37.5,1064.9194 M24.5,1045.9194 L50.5,1045.9194 M37.5,1064.9194 L24.5,1079.9194 M37.5,1064.9194 L50.5,1079.9194 " fill="none" style="stroke:#181818;stroke-width:0.5;"/><rect fill="#E2E2F0" height="31.1514" rx="2.5" ry="2.5" style="stroke:#181818;stroke-width:0.5;" width="26" x="206.5" y="50"/><text fill="#000000" font-family="sans-serif" font-size="14" lengthAdjust="spacing" textLength="12" x="213.5" y="71.0752">UI</text><rect fill="#E2E2F0" height="31.1514" rx="2.5" ry="2.5" style="stroke:#181818;stroke-width:0.5;" width="26" x="206.5" y="1004.2681"/><text fill="#000000" font-family="sans-serif" font-size="14" lengthAdjust="spacing" textLength="12" x="213.5" y="1025.3433">UI</text><rect fill="#E2E2F0" height="31.1514" rx="2.5" ry="2.5" style="stroke:#181818;stroke-width:0.5;" width="152" x="320.5" y="50"/><text fill="#000000" font-family="sans-serif" font-size="14" lengthAdjust="spacing" textLength="138" x="327.5" y="71.0752">ReservationController</text><rect fill="#E2E2F0" height="31.1514" rx="2.5" ry="2.5" style="stroke:#181818;stroke-width:0.5;" width="152" x="320.5" y="1004.2681"/><text fill="#000000" font-family="sans-serif" font-size="14" lengthAdjust="spacing" textLength="138" x="327.5" y="1025.3433">ReservationController</text><rect fill="#E2E2F0" height="31.1514" rx="2.5" ry="2.5" style="stroke:#181818;stroke-width:0.5;" width="137" x="518" y="50"/><text fill="#000000" font-family="sans-serif" font-size="14" lengthAdjust="spacing" textLength="123" x="525" y="71.0752">ReservationService</text><rect fill="#E2E2F0" height="31.1514" rx="2.5" ry="2.5" style="stroke:#181818;stroke-width:0.5;" width="137" x="518" y="1004.2681"/><text fill="#000000" font-family="sans-serif" font-size="14" lengthAdjust="spacing" textLength="123" x="525" y="1025.3433">ReservationService</text><rect fill="#E2E2F0" height="31.1514" rx="2.5" ry="2.5" style="stroke:#181818;stroke-width:0.5;" width="111" x="758" y="50"/><text fill="#000000" font-family="sans-serif" font-size="14" lengthAdjust="spacing" textLength="97" x="765" y="71.0752">SeatRepository</text><rect fill="#E2E2F0" height="31.1514" rx="2.5" ry="2.5" style="stroke:#181818;stroke-width:0.5;" width="111" x="758" y="1004.2681"/><text fill="#000000" font-family="sans-serif" font-size="14" lengthAdjust="spacing" textLength="97" x="765" y="1025.3433">SeatRepository</text><rect fill="#E2E2F0" height="31.1514" rx="2.5" ry="2.5" style="stroke:#181818;stroke-width:0.5;" width="158" x="879" y="50"/><text fill="#000000" font-family="sans-serif" font-size="14" lengthAdjust="spacing" textLength="144" x="886" y="71.0752">ReservationRepository</text><rect fill="#E2E2F0" height="31.1514" rx="2.5" ry="2.5" style="stroke:#181818;stroke-width:0.5;" width="158" x="879" y="1004.2681"/><text fill="#000000" font-family="sans-serif" font-size="14" lengthAdjust="spacing" textLength="144" x="886" y="1025.3433">ReservationRepository</text><text fill="#000000" font-family="sans-serif" font-size="14" lengthAdjust="spacing" textLength="19" x="1205.5" y="79.0752">DB</text><path d="M1200,29 C1200,19 1218,19 1218,19 C1218,19 1236,19 1236,29 L1236,55 C1236,65 1218,65 1218,65 C1218,65 1200,65 1200,55 L1200,29 " fill="#E2E2F0" style="stroke:#181818;stroke-width:1.5;"/><path d="M1200,29 C1200,39 1218,39 1218,39 C1218,39 1236,39 1236,29 " fill="none" style="stroke:#181818;stroke-width:1.5;"/><text fill="#000000" font-family="sans-serif" font-size="14" lengthAdjust="spacing" textLength="19" x="1205.5" y="1018.3433">DB</text><path d="M1200,1031.4194 C1200,1021.4194 1218,1021.4194 1218,1021.4194 C1218,1021.4194 1236,1021.4194 1236,1031.4194 L1236,1057.4194 C1236,1067.4194 1218,1067.4194 1218,1067.4194 C1218,1067.4194 1200,1067.4194 1200,1057.4194 L1200,1031.4194 " fill="#E2E2F0" style="stroke:#181818;stroke-width:1.5;"/><path d="M1200,1031.4194 C1200,1041.4194 1218,1041.4194 1218,1041.4194 C1218,1041.4194 1236,1041.4194 1236,1031.4194 " fill="none" style="stroke:#181818;stroke-width:1.5;"/><rect fill="#FFFFFF" height="805.4116" style="stroke:#181818;stroke-width:1.0;" width="10" x="391.5" y="189.8564"/><rect fill="#FFFFFF" height="775.4854" style="stroke:#181818;stroke-width:1.0;" width="10" x="581.5" y="219.7827"/><rect fill="#FFFFFF" height="89.7788" style="stroke:#181818;stroke-width:1.0;" width="10" x="808.5" y="265.6353"/><rect fill="#FFFFFF" height="89.7788" style="stroke:#181818;stroke-width:1.0;" width="10" x="953" y="531.4478"/><rect fill="#FFFFFF" height="89.7788" style="stroke:#181818;stroke-width:1.0;" width="10" x="953" y="725.9316"/><polygon fill="#181818" points="207.5,110.0776,217.5,114.0776,207.5,118.0776,211.5,114.0776" style="stroke:#181818;stroke-width:1.0;"/><line style="stroke:#181818;stroke-width:1.0;" x1="37.5" x2="213.5" y1="114.0776" y2="114.0776"/><text fill="#000000" font-family="sans-serif" font-size="13" lengthAdjust="spacing" textLength="158" x="44.5" y="109.2212">Select screening and seats</text><polygon fill="#181818" points="207.5,140.0039,217.5,144.0039,207.5,148.0039,211.5,144.0039" style="stroke:#181818;stroke-width:1.0;"/><line style="stroke:#181818;stroke-width:1.0;" x1="37.5" x2="213.5" y1="144.0039" y2="144.0039"/><text fill="#000000" font-family="sans-serif" font-size="13" lengthAdjust="spacing" textLength="110" x="44.5" y="139.1475">Confirm reservation</text><polygon fill="#181818" points="379.5,185.8564,389.5,189.8564,379.5,193.8564,383.5,189.8564" style="stroke:#181818;stroke-width:1.0;"/><line style="stroke:#181818;stroke-width:1.0;" x1="219.5" x2="385.5" y1="189.8564" y2="189.8564"/><text fill="#000000" font-family="sans-serif" font-size="13" lengthAdjust="spacing" textLength="112" x="226.5" y="169.0737">POST /reservations</text><text fill="#000000" font-family="sans-serif" font-size="13" lengthAdjust="spacing" textLength="153" x="226.5" y="185">CreateReservationRequest</text><polygon fill="#181818" points="569.5,215.7827,579.5,219.7827,569.5,223.7827,573.5,219.7827" style="stroke:#181818;stroke-width:1.0;"/><line style="stroke:#181818;stroke-width:1.0;" x1="401.5" x2="575.5" y1="219.7827" y2="219.7827"/><text fill="#000000" font-family="sans-serif" font-size="13" lengthAdjust="spacing" textLength="87" x="408.5" y="214.9263">create(request)</text><polygon fill="#181818" points="796.5,261.6353,806.5,265.6353,796.5,269.6353,800.5,265.6353" style="stroke:#181818;stroke-width:1.0;"/><line style="stroke:#181818;stroke-width:1.0;" x1="591.5" x2="802.5" y1="265.6353" y2="265.6353"/><text fill="#000000" font-family="sans-serif" font-size="13" lengthAdjust="spacing" textLength="133" x="598.5" y="244.8525">findUnavailableSeatIds(</text><text fill="#000000" font-family="sans-serif" font-size="13" lengthAdjust="spacing" textLength="194" x="598.5" y="260.7788">screeningId, seatIds, activeSince)</text><polygon fill="#181818" points="1206,291.5615,1216,295.5615,1206,299.5615,1210,295.5615" style="stroke:#181818;stroke-width:1.0;"/><line style="stroke:#181818;stroke-width:1.0;" x1="818.5" x2="1212" y1="295.5615" y2="295.5615"/><text fill="#000000" font-family="sans-serif" font-size="13" lengthAdjust="spacing" textLength="169" x="825.5" y="290.7051">SELECT unavailable seat IDs</text><polygon fill="#181818" points="829.5,321.4878,819.5,325.4878,829.5,329.4878,825.5,325.4878" style="stroke:#181818;stroke-width:1.0;"/><line style="stroke:#181818;stroke-width:1.0;stroke-dasharray:2.0,2.0;" x1="823.5" x2="1217" y1="325.4878" y2="325.4878"/><text fill="#000000" font-family="sans-serif" font-size="13" lengthAdjust="spacing" textLength="65" x="835.5" y="320.6313">List&lt;Long&gt;</text><polygon fill="#181818" points="602.5,351.4141,592.5,355.4141,602.5,359.4141,598.5,355.4141" style="stroke:#181818;stroke-width:1.0;"/><line style="stroke:#181818;stroke-width:1.0;stroke-dasharray:2.0,2.0;" x1="596.5" x2="812.5" y1="355.4141" y2="355.4141"/><text fill="#000000" font-family="sans-serif" font-size="13" lengthAdjust="spacing" textLength="107" x="608.5" y="350.5576">unavailableSeatIds</text><path d="M10,370.4141 L71,370.4141 L71,378.3403 L61,388.3403 L10,388.3403 L10,370.4141 " fill="#EEEEEE" style="stroke:#000000;stroke-width:1.5;"/><rect fill="none" height="617.854" style="stroke:#000000;stroke-width:1.5;" width="1236" x="10" y="370.4141"/><text fill="#000000" font-family="sans-serif" font-size="13" font-weight="bold" lengthAdjust="spacing" textLength="16" x="25" y="384.4839">alt</text><text fill="#000000" font-family="sans-serif" font-size="11" font-weight="bold" lengthAdjust="spacing" textLength="159" x="86" y="383.4731">[Some seats are unavailable]</text><polygon fill="#181818" points="412.5,406.2666,402.5,410.2666,412.5,414.2666,408.5,410.2666" style="stroke:#181818;stroke-width:1.0;"/><line style="stroke:#181818;stroke-width:1.0;stroke-dasharray:2.0,2.0;" x1="406.5" x2="580.5" y1="410.2666" y2="410.2666"/><text fill="#000000" font-family="sans-serif" font-size="13" lengthAdjust="spacing" textLength="156" x="418.5" y="405.4102">SeatNotAvailableException</text><polygon fill="#181818" points="230.5,436.1929,220.5,440.1929,230.5,444.1929,226.5,440.1929" style="stroke:#181818;stroke-width:1.0;"/><line style="stroke:#181818;stroke-width:1.0;stroke-dasharray:2.0,2.0;" x1="224.5" x2="390.5" y1="440.1929" y2="440.1929"/><text fill="#000000" font-family="sans-serif" font-size="13" lengthAdjust="spacing" textLength="68" x="236.5" y="435.3364">409 Conflict</text><polygon fill="#181818" points="48.5,466.1191,38.5,470.1191,48.5,474.1191,44.5,470.1191" style="stroke:#181818;stroke-width:1.0;"/><line style="stroke:#181818;stroke-width:1.0;stroke-dasharray:2.0,2.0;" x1="42.5" x2="218.5" y1="470.1191" y2="470.1191"/><text fill="#000000" font-family="sans-serif" font-size="13" lengthAdjust="spacing" textLength="146" x="54.5" y="465.2627">Display unavailable seats</text><line style="stroke:#000000;stroke-width:1.0;stroke-dasharray:2.0,2.0;" x1="10" x2="1246" y1="479.1191" y2="479.1191"/><text fill="#000000" font-family="sans-serif" font-size="11" font-weight="bold" lengthAdjust="spacing" textLength="127" x="15" y="490.1782">[All seats are available]</text><polygon fill="#181818" points="941,527.4478,951,531.4478,941,535.4478,945,531.4478" style="stroke:#181818;stroke-width:1.0;"/><line style="stroke:#181818;stroke-width:1.0;" x1="591.5" x2="947" y1="531.4478" y2="531.4478"/><text fill="#000000" font-family="sans-serif" font-size="13" lengthAdjust="spacing" textLength="130" x="598.5" y="510.665">deleteExpiredPending(</text><text fill="#000000" font-family="sans-serif" font-size="13" lengthAdjust="spacing" textLength="194" x="598.5" y="526.5913">screeningId, seatIds, activeSince)</text><polygon fill="#181818" points="1206,557.374,1216,561.374,1206,565.374,1210,561.374" style="stroke:#181818;stroke-width:1.0;"/><line style="stroke:#181818;stroke-width:1.0;" x1="963" x2="1212" y1="561.374" y2="561.374"/><text fill="#000000" font-family="sans-serif" font-size="13" lengthAdjust="spacing" textLength="231" x="970" y="556.5176">DELETE expired PENDING reservations</text><polygon fill="#181818" points="974,587.3003,964,591.3003,974,595.3003,970,591.3003" style="stroke:#181818;stroke-width:1.0;"/><line style="stroke:#181818;stroke-width:1.0;stroke-dasharray:2.0,2.0;" x1="968" x2="1217" y1="591.3003" y2="591.3003"/><text fill="#000000" font-family="sans-serif" font-size="13" lengthAdjust="spacing" textLength="109" x="980" y="586.4438">deleted rows count</text><polygon fill="#181818" points="602.5,617.2266,592.5,621.2266,602.5,625.2266,598.5,621.2266" style="stroke:#181818;stroke-width:1.0;"/><line style="stroke:#181818;stroke-width:1.0;stroke-dasharray:2.0,2.0;" x1="596.5" x2="957" y1="621.2266" y2="621.2266"/><text fill="#000000" font-family="sans-serif" font-size="13" lengthAdjust="spacing" textLength="76" x="608.5" y="616.3701">deletedCount</text><line style="stroke:#181818;stroke-width:1.0;" x1="591.5" x2="633.5" y1="683.0054" y2="683.0054"/><line style="stroke:#181818;stroke-width:1.0;" x1="633.5" x2="633.5" y1="683.0054" y2="696.0054"/><line style="stroke:#181818;stroke-width:1.0;" x1="592.5" x2="633.5" y1="696.0054" y2="696.0054"/><polygon fill="#181818" points="602.5,692.0054,592.5,696.0054,602.5,700.0054,598.5,696.0054" style="stroke:#181818;stroke-width:1.0;"/><text fill="#000000" font-family="sans-serif" font-size="13" lengthAdjust="spacing" textLength="145" x="598.5" y="646.2964">Create Reservation entity</text><text fill="#000000" font-family="sans-serif" font-size="13" lengthAdjust="spacing" textLength="103" x="598.5" y="662.2227">state = PENDING</text><text fill="#000000" font-family="sans-serif" font-size="13" lengthAdjust="spacing" textLength="142" x="598.5" y="678.1489">expiresAt = now + 5 min</text><polygon fill="#181818" points="941,721.9316,951,725.9316,941,729.9316,945,725.9316" style="stroke:#181818;stroke-width:1.0;"/><line style="stroke:#181818;stroke-width:1.0;" x1="591.5" x2="947" y1="725.9316" y2="725.9316"/><text fill="#000000" font-family="sans-serif" font-size="13" lengthAdjust="spacing" textLength="96" x="598.5" y="721.0752">save(reservation)</text><polygon fill="#181818" points="1206,751.8579,1216,755.8579,1206,759.8579,1210,755.8579" style="stroke:#181818;stroke-width:1.0;"/><line style="stroke:#181818;stroke-width:1.0;" x1="963" x2="1212" y1="755.8579" y2="755.8579"/><text fill="#000000" font-family="sans-serif" font-size="13" lengthAdjust="spacing" textLength="112" x="970" y="751.0015">INSERT reservation</text><polygon fill="#181818" points="974,781.7842,964,785.7842,974,789.7842,970,785.7842" style="stroke:#181818;stroke-width:1.0;"/><line style="stroke:#181818;stroke-width:1.0;stroke-dasharray:2.0,2.0;" x1="968" x2="1217" y1="785.7842" y2="785.7842"/><text fill="#000000" font-family="sans-serif" font-size="13" lengthAdjust="spacing" textLength="162" x="980" y="780.9277">generated ID / persisted row</text><polygon fill="#181818" points="602.5,811.7104,592.5,815.7104,602.5,819.7104,598.5,815.7104" style="stroke:#181818;stroke-width:1.0;"/><line style="stroke:#181818;stroke-width:1.0;stroke-dasharray:2.0,2.0;" x1="596.5" x2="957" y1="815.7104" y2="815.7104"/><text fill="#000000" font-family="sans-serif" font-size="13" lengthAdjust="spacing" textLength="104" x="608.5" y="810.854">saved Reservation</text><line style="stroke:#181818;stroke-width:1.0;" x1="591.5" x2="633.5" y1="845.6367" y2="845.6367"/><line style="stroke:#181818;stroke-width:1.0;" x1="633.5" x2="633.5" y1="845.6367" y2="858.6367"/><line style="stroke:#181818;stroke-width:1.0;" x1="592.5" x2="633.5" y1="858.6367" y2="858.6367"/><polygon fill="#181818" points="602.5,854.6367,592.5,858.6367,602.5,862.6367,598.5,858.6367" style="stroke:#181818;stroke-width:1.0;"/><text fill="#000000" font-family="sans-serif" font-size="13" lengthAdjust="spacing" textLength="203" x="598.5" y="840.7803">Map Reservation -&gt; ReservationDto</text><polygon fill="#181818" points="412.5,884.563,402.5,888.563,412.5,892.563,408.5,888.563" style="stroke:#181818;stroke-width:1.0;"/><line style="stroke:#181818;stroke-width:1.0;stroke-dasharray:2.0,2.0;" x1="406.5" x2="580.5" y1="888.563" y2="888.563"/><text fill="#000000" font-family="sans-serif" font-size="13" lengthAdjust="spacing" textLength="87" x="418.5" y="883.7065">ReservationDto</text><polygon fill="#181818" points="230.5,930.4155,220.5,934.4155,230.5,938.4155,226.5,934.4155" style="stroke:#181818;stroke-width:1.0;"/><line style="stroke:#181818;stroke-width:1.0;stroke-dasharray:2.0,2.0;" x1="224.5" x2="390.5" y1="934.4155" y2="934.4155"/><text fill="#000000" font-family="sans-serif" font-size="13" lengthAdjust="spacing" textLength="70" x="236.5" y="913.6328">201 Created</text><text fill="#000000" font-family="sans-serif" font-size="13" lengthAdjust="spacing" textLength="87" x="236.5" y="929.5591">ReservationDto</text><polygon fill="#181818" points="48.5,976.2681,38.5,980.2681,48.5,984.2681,44.5,980.2681" style="stroke:#181818;stroke-width:1.0;"/><line style="stroke:#181818;stroke-width:1.0;stroke-dasharray:2.0,2.0;" x1="42.5" x2="218.5" y1="980.2681" y2="980.2681"/><text fill="#000000" font-family="sans-serif" font-size="13" lengthAdjust="spacing" textLength="109" x="54.5" y="959.4854">Display reservation</text><text fill="#000000" font-family="sans-serif" font-size="13" lengthAdjust="spacing" textLength="110" x="54.5" y="975.4116">and expiration time</text><!--SRC=[jLLDRzim3BthL_3OOItQ3TjXGHSWYOt1G9O5-RZbeafi8C2HF4b9bty_oiw7xDXj4MmvnIJrI3u-KLnuOs7fqBA2Mw-4AhZsiCngdpEaW1ttokYHqTwQF6ySY2Bcz4S9hBddoFqC2-CKfTjtdOmY9FVyYJk4PCXOA0_k-bHLZv1o51wSi8XQwJLmBS4HlAk5KPdFocx0dj499mlkrcPwCFqrNy1z5EzMUcG966iL_jwYyumBhyY27SomLdCZ-O6d7eWoousji3-qWXz9PPUs05ldjmVFIikbvZkkSlwKOt1dqjsiz8ctJDwMj97v5igCE5TQO9I-CJHM_mvfao4D91sdemLipzbANCWInv8XtBLKDrREFuwDNlSlGJiusbuqmoHsLifpafpPL9Kuu1PZ00RqQ-EnMnmXmSJumH4Y_IEmA4NLm8gdVP3YbuTlfHnp9NmP7cGOV2uW9yeLETzVyESOmvpqFyZpg8jp3vrDzDjlL0yatHnFbHVAefoYbgI2zoaYf6eJPKnvevnBdIIaaqKAMEM7QJf9iicF-8Aw4kIWcLURa63DYmDXjjg_chf3JGUKKNa-78-qzBx-ska-9QWMH-m2r5xvFV7jW-VxaO2LhXXn0qz6RLxW8to5ZT9NJDZnNLWZ9zy_cbmscQUpHMsLlZseDMgqF8mgI-0U2hIERdqrkMj65dgJiUU_pEqdBsf3guSbth0hbiSR22qhu_F3fuE4v4etZdTka6W-AnrUnL9OLHzURMXbq9rdh9sou_lIxesUjhy0]--></g></svg>